<svg style="position:absolute;width:0;height:0" width="0" height="0" xmlns="http://www.w3.org/2000/svg"><defs><symbol id="facebook_facebook55" viewBox="0 -212 1024 1024"><path d="M531-150H411q-102 2-161 62-60 61-61 166v105H69q-18 1-19 18v152q1 18 19 19h120v383q2 18 19 19h157q17-1 19-19V372h141q17-1 19-19V201q0-7-6-13-5-5-13-5H384V94q-1-32 12-48t54-16h81q17-2 18-19v-142q-1-17-18-19z"/></symbol><symbol id="twitter45" viewBox="0 -212 1024 1024"><path d="M1122 79.33q-10-13-25-9-26 7-67 13 37-19 59-40 11-13 2-28-11-14-28-7-39 18-83 18-42-80-90-115-47-35-54-35-83-37-154-22-95 26-136 114-42 89-29 185-28 2-145-26-118-28-289-120-11-6-22 0t-11 19q8 99 69 150 62 52 107 67-18 2-45 0-15 1-22 16-3 15 9 25 55 36 109 47-12 1-24 1-16 2-21 17-3 16 11 25 24 15 62 28 36 13 80 14h3q-9 3-21 6l-7 2q-15 4-17 20 0 16 15 23 64 20 115 8 9-2 18-5 5 30-33 92-39 62-178 99h-3q-19 5-69 6-20 0-40-1-18 0-23 16-3 17 12 25 111 52 240 56 70 0 138-15 123-28 237-104 2-1 4-3 162-111 235-307 30-99 20-176 57-18 89-52 10-13 2-27z"/></symbol><symbol id="weibo" viewBox="0 -212 1024 1024"><path d="M475 551.22q-14 22-39 30-26 9-47-1-22-10-27-33-6-21 8-42 13-21 38-29 24-8 46 0 22 10 28 32t-7 43zm59-76q-4 8-13 11-10 4-19 1-19-9-8-28 4-9 14-12 9-3 18 0 8 3 11 11 2 9-3 17zm110 67q28-63-1-120-31-57-100-75-67-17-133 12t-95 88q-30 60-4 118 25 58 92 79 70 23 141-7 72-30 100-95zm196-100q9 92-83 166-92 75-233 89-92 9-172-13-82-22-132-68-50-47-56-108-9-92 84-166 92-75 232-89 92-9 173 13t131 69q51 46 56 107zm194 2q0-40-21-73t-50-52q-29-18-65-29-8-3-11-4t-7-5q-5-3-3-7 1-5 3-13 28-73 0-112-29-39-97-39-67 0-155 38l-4 1q-3 1-8 2t-9 0q-5 0-7-4-1-4 1-13 28-91-12-131-47-47-155-5-109 42-216 149-80 81-124 162-44 82-44 155 0 68 41 125 41 58 108 95 67 38 151 59 85 21 174 21 88 0 170-19 82-20 143-53 60-32 106-74 45-41 68-86t23-88zm-110-434q-37-12-75-4-15 4-23 16-8 13-5 29 2 15 16 23 13 8 28 5 40-8 67 22 28 30 16 70-5 14 2 28 7 13 21 18 15 5 29-2 13-7 18-21 12-36 4-75-8-38-34-68-27-29-64-41zm178-61q-55-62-131-86-76-23-154-6-17 3-27 18t-6 33q4 17 19 27t32 6q55-11 109 5 55 17 94 60t50 100q11 57-6 108-5 17 3 33t25 21q17 6 33-2t21-25q25-73 9-153-16-79-71-139z"/></symbol><symbol id="homefill" viewBox="0 -212 1024 1024"><path d="M962 177q10 8 11 20t-6 23q-5 5-11 8-7 3-13 3-11 0-19-6l-14-11v372q-1 42-22 66-22 25-59 26H217q-38-1-69-27-32-25-34-65V215l-13 10q-10 8-22 6-12-1-21-11-8-11-6-23 1-12 11-20l388-307q27-20 60-20t60 20l391 307zM604 552V445q0-28-23-50-22-23-69-24-47 1-69 23-23 23-23 51v171h184v-64z"/></symbol><symbol id="xiangxia" viewBox="0 -212 1024 1024"><path d="M90-150l326 326 326-326 40 39-366 366L50-111l40-39z"/></symbol><symbol id="comment" viewBox="0 -212 1024 1024"><path d="M466 650q13 0 23-9l86-87h211q41-1 68-28t28-68V-54q-1-41-28-68t-68-28H146q-41 1-68 28T50-54v512q1 41 28 68t68 28h96q14 0 23-9t9-23q0-14-9-23t-23-9h-96q-14 0-23-9t-9-23V-54q0-14 9-23t23-9h640q14 0 23 9t9 23v512q0 14-9 23t-23 9H562q-13 0-23 9l-73 74-73-74q-10-9-23-9t-23 9q-9 10-9 23t9 23l96 96q10 9 23 9zM290 234q20-1 34-15 13-13 14-33-1-20-14-34-14-13-34-14-20 1-33 14-14 14-15 34 1 20 15 33 13 14 33 15zm192 0q20-1 34-15 13-13 14-33-1-20-14-34-14-13-34-14-20 1-33 14-14 14-15 34 1 20 15 33 13 14 33 15zm192 0q20-1 34-15 13-13 14-33-1-20-14-34-14-13-34-14-20 1-33 14-14 14-15 34 1 20 15 33 13 14 33 15z"/></symbol><symbol id="xiangshang" viewBox="0 -212 1024 1024"><path d="M742 255L416-71 90 255l-40-40 366-365 366 365-40 40z"/></symbol><symbol id="left148" viewBox="0 -212 1024 1024"><path d="M142 312L566-75q22-26 0-53-27-22-54 0L62 283q-12 13-11 29-1 16 11 29l450 411q27 22 54 0 22-27 0-53L142 312z"/></symbol><symbol id="right154" viewBox="0 -212 1024 1024"><path d="M577 283L126-128q-27-22-54 0-22 27 0 53l424 387L72 699q-22 26 0 53 27 22 54 0l451-411q12-13 11-29 1-16-11-29z"/></symbol><symbol id="github" viewBox="0 -212 1024 1024"><path d="M286-84.82q-109 64-173 172-63 109-63 237 0 155 90 278t233 171q17 3 25-5 8-7 8-18v-34q-1-31-1-54l-14 2q-14 3-34 2-21 0-43-4t-41-18q-19-15-27-38l-7-14q-6-14-19-31-13-18-27-24l-4-3q-4-3-8-7-4-5-6-9-1-4 4-7 4-3 17-3l13 2q12 3 30 15t30 32q14 25 34 38t40 13q21 0 36-3 14-3 27-9 6-41 30-63-35-4-62-11-29-8-58-24-30-17-50-41-20-25-32-65-13-40-13-92 0-74 49-127-23-56 5-126 17-5 52 8 35 15 52 24 16 10 25 17 58-16 118-16 61 0 119 16l23-15q24-14 57-27 32-12 49-7 28 70 5 126 49 53 49 127 0 52-12 92-13 41-33 65t-50 41q-30 16-58 24-28 7-63 11 32 28 32 87v83q-1 45-1 47 0 11 8 18 8 8 25 5 143-48 233-171t90-278q0-128-63-237-64-108-172-172-109-63-238-63-128 0-236 63zm-57 615q-2 5-8 2t-4-8q2-3 8-1 6 3 4 7zm19 21q-4 5-10-2-5-6-1-9 4-4 10 1 5 7 1 10zm19 28q-5 4-11-4-5-8 0-11 6-5 11 3t0 12zm25 26q-5 5-12-2-8-7-2-12 5-5 12 2t2 12zm35 15q-2 8-11 4-11-3-8-9 2-7 11-5 10 3 8 10zm39 3q0 7-10 7-10 1-10-7 0-7 10-7 10-1 10 7zm36-6q1 6-9 9-10 2-11-5-1-8 9-9 10-2 11 5z"/></symbol><symbol id="folder173" viewBox="0 -212 1024 1024"><path d="M859-35H454q-10-105-115-115H166Q60-140 50-35v693q10 106 116 116h693q105-10 115-116V81Q964-25 859-35zm57 693q-4 54-57 58H166q-54-5-58-58V196h808v462zm0-519H108V-35q4-53 58-57h173q53 4 58 57v58h462q53 6 57 58v58z"/></symbol><symbol id="heart" viewBox="0 -212 1024 1024"><path d="M615 763l375-361q138-138 138-270 0-133-76-207-77-75-212-75-37 0-75 13-39 13-73 35-33 22-57 41t-46 41q-22-22-46-41t-57-41q-34-22-72-35-39-13-76-13-135 0-212 75Q50-1 50 132q0 40 14 83 14 42 32 72t41 59q23 29 34 39 10 11 16 16l376 362q10 11 26 11t26-11z"/></symbol><symbol id="bookmark30" viewBox="0 -212 1024 1024"><path d="M552-69.44q-5-57-41-70-37-13-42-10H134q-5-3-42 10t-42 70v841l251-240 251 240v-841z"/></symbol><symbol id="shouji" viewBox="0 -212 1024 1024"><path d="M667 647V-28q0-25-10-48-10-22-27-39-18-16-41-26-24-9-52-9H180q-28 0-51 9-24 10-41 26-18 17-28 39-10 23-10 48v675q0 25 10 47t28 38q17 17 41 26 23 10 51 10h357q28 0 52-10 23-9 41-26 17-16 27-38t10-47zM586 20v578H130V20h456zM358 626q22 0 37 15t15 37q0 22-15 37-15 16-37 16-21 0-36-16-16-15-16-37t16-37q15-15 36-15zm81-691q0 8-5 12-5 5-12 5H294q-6 0-11-5-5-4-5-12t6-13q5-4 10-4h128q7 0 12 4 5 5 5 13z"/></symbol><symbol id="weixin" viewBox="0 -212 1024 1024"><path d="M637 228q16 0 32 2-25-103-116-168Q461-3 337-5 198-2 105 78 12 157 8 280q1 69 35 125 35 57 97 101l-33 100 115-58q30 6 57 11 28 5 58 6 15-1 31-2-10-33-10-70 2-112 81-187 78-75 198-78zm-177-91q19 1 30 12t11 30q0 19-11 31-11 11-30 11t-33-12q-15-11-16-30 1-19 16-30 14-11 33-12zm-230 84q-19 0-33-12-15-11-16-30 1-19 16-30 14-11 33-12 19 1 30 12t11 30q0 19-11 30-11 12-30 12zm707 268q-4-103-84-172-81-68-195-71-120 3-199 71-78 69-81 172 3 103 81 172 79 68 199 71 24 0 49-5t49-12l91 50-25-83q50-38 82-87t33-106zm-370-42q-13 0-22-10-10-10-11-23 1-13 11-23 9-10 22-11 19 1 30 11t11 23q0 13-11 23t-30 10zm181 0q-13 0-23-10-9-10-10-23 1-13 10-23 10-10 23-11 19 1 30 11t11 23q0 13-11 23t-30 10z"/></symbol><symbol id="link" viewBox="0 -212 1024 1024"><path d="M865 530q0 22-15 38l-84 82q-16 15-38 15-23 0-39-15L573 533q-16-16-16-39 0-24 18-41l11 11q9 9 12 11 4 4 11 9 7 6 15 7 6 3 15 3 23 0 38-16 16-16 16-39 0-8-1-16-3-6-8-14-5-7-8-11l-13-12q-9-8-11-10 17-18 41-18 23 0 39 16l118 117q15 16 15 39zM467 131q0 23-18 41l-11-11-12-12q-3-3-11-9-7-5-14-7t-16-2q-22 0-38 16t-16 39q0 8 2 15t8 15q5 7 8 10 3 4 12 12l11 11q-17 18-41 18-23 0-39-16L175 133q-16-15-16-38 0-22 16-38l83-83q16-15 38-15 23 0 39 16L451 92q16 16 16 39zm460 283L809 297q-48-48-116-48-69 0-118 50l-49-50q49-49 49-118 0-68-47-115L412-101q-47-49-116-49-68 0-115 47L98-20Q50 27 50 95t48 115l117 118q48 48 116 48 69 0 118-50l49 50q-49 49-49 118 0 68 47 115l116 117q47 48 116 48 68 0 115-47l83-82q48-47 48-115t-47-116z"/></symbol><symbol id="email65" viewBox="0 -212 1024 1024"><path d="M1321-35v-115H50v115l635 520 636-520zm0 716V49l-321 278 321 354zM50 774h1271L944 370 685 585 425 370 50 774zm0-729v628l312-347L50 45z"/></symbol></defs></svg>